<mxfile host="app.diagrams.net" modified="2023-08-30T12:34:26.046Z" agent="Mozilla/5.0 (X11; Ubuntu; Linux x86_64; rv:109.0) Gecko/20100101 Firefox/116.0" etag="kxsdH_BnpgboVngqycRu" version="21.6.9" type="device">
  <diagram name="Page-1" id="1cr3QiusAFMmmlQZE1m2">
    <mxGraphModel dx="834" dy="550" grid="1" gridSize="10" guides="1" tooltips="1" connect="1" arrows="1" fold="1" page="1" pageScale="1" pageWidth="850" pageHeight="1100" math="0" shadow="0">
      <root>
        <mxCell id="0" />
        <mxCell id="1" parent="0" />
        <mxCell id="cD0N8sSKvw7MNSXqS_z9-1" value="" style="ellipse;whiteSpace=wrap;html=1;aspect=fixed;fillColor=#d5e8d4;strokeColor=#82b366;fillOpacity=70;" vertex="1" parent="1">
          <mxGeometry x="30" y="90" width="430" height="430" as="geometry" />
        </mxCell>
        <mxCell id="cD0N8sSKvw7MNSXqS_z9-3" value="" style="ellipse;whiteSpace=wrap;html=1;aspect=fixed;fillColor=#dae8fc;strokeColor=#6c8ebf;fillOpacity=70;" vertex="1" parent="1">
          <mxGeometry x="290" y="90" width="430" height="430" as="geometry" />
        </mxCell>
      </root>
    </mxGraphModel>
  </diagram>
</mxfile>
